<svg id="visual" viewBox="0 0 900 450" width="900" height="450" xmlns="http://www.w3.org/2000/svg" xmlns:xlink="http://www.w3.org/1999/xlink" version="1.1"><path d="M0 395L10.7 398.5C21.3 402 42.7 409 64.2 410C85.7 411 107.3 406 128.8 402.7C150.3 399.3 171.7 397.7 193 394C214.3 390.3 235.7 384.7 257 385.8C278.3 387 299.7 395 321.2 395.7C342.7 396.3 364.3 389.7 385.8 393.7C407.3 397.7 428.7 412.3 450 414.7C471.3 417 492.7 407 514.2 401.2C535.7 395.3 557.3 393.7 578.8 394.8C600.3 396 621.7 400 643 405.3C664.3 410.7 685.7 417.3 707 416.3C728.3 415.3 749.7 406.7 771.2 407.2C792.7 407.7 814.3 417.3 835.8 417.5C857.3 417.7 878.7 408.3 889.3 403.7L900 399L900 451L889.3 451C878.7 451 857.3 451 835.8 451C814.3 451 792.7 451 771.2 451C749.7 451 728.3 451 707 451C685.7 451 664.3 451 643 451C621.7 451 600.3 451 578.8 451C557.3 451 535.7 451 514.2 451C492.7 451 471.3 451 450 451C428.7 451 407.3 451 385.8 451C364.3 451 342.7 451 321.2 451C299.7 451 278.3 451 257 451C235.7 451 214.3 451 193 451C171.7 451 150.3 451 128.8 451C107.3 451 85.7 451 64.2 451C42.7 451 21.3 451 10.7 451L0 451Z" fill="#bbd1f1" stroke-linecap="round" stroke-linejoin="miter"></path></svg>